<?xml version="1.0" standalone="no"?>
<!DOCTYPE svg PUBLIC "-//W3C//DTD SVG 20010904//EN"
 "http://www.w3.org/TR/2001/REC-SVG-20010904/DTD/svg10.dtd">
<svg version="1.0" xmlns="http://www.w3.org/2000/svg"
 width="800.000000pt" height="800.000000pt" viewBox="0 0 800.000000 800.000000"
 preserveAspectRatio="xMidYMid meet">
<metadata>
Created by potrace 1.14, written by Peter Selinger 2001-2017
</metadata>
<g transform="translate(0.000000,800.000000) scale(0.100000,-0.100000)"
fill="#000000" stroke="none">
<path d="M3695 7989 c-760 -58 -1474 -326 -2090 -784 -285 -211 -580 -504
-798 -793 -372 -491 -630 -1075 -741 -1682 -47 -258 -60 -413 -60 -725 0 -312
13 -467 60 -725 111 -607 369 -1191 741 -1682 218 -289 513 -582 798 -793 580
-431 1223 -686 1945 -769 174 -20 210 -19 90 4 -856 160 -1505 837 -1626 1696
-25 179 -15 494 21 664 82 391 253 715 524 994 181 185 342 303 566 411 280
137 585 204 925 205 389 1 825 155 1159 409 486 370 780 965 781 1579 0 431
-139 852 -399 1202 -74 100 -257 288 -356 365 -434 339 -914 471 -1540 424z
m788 -1781 c263 -455 477 -829 477 -833 0 -3 -87 -5 -192 -5 l-193 0 -286 498
c-158 273 -290 496 -295 496 -4 -1 -137 -225 -294 -498 l-285 -496 -192 0
c-106 0 -193 2 -193 5 0 16 965 1674 970 1668 4 -5 221 -380 483 -835z"/>
<path d="M3050 2623 c1 -15 935 -1624 944 -1626 8 -2 945 1608 946 1626 0 4
-84 7 -187 7 l-188 0 -280 -486 c-155 -268 -285 -487 -289 -488 -5 0 -135 218
-290 486 l-281 488 -187 0 c-104 0 -188 -3 -188 -7z"/>
</g>
</svg>
